<?xml version="1.0" encoding="UTF-8" standalone="no"?>
<!-- Created with Inkscape (http://www.inkscape.org/) -->

<svg
   xmlns:dc="http://purl.org/dc/elements/1.1/"
   xmlns:cc="http://creativecommons.org/ns#"
   xmlns:rdf="http://www.w3.org/1999/02/22-rdf-syntax-ns#"
   xmlns:svg="http://www.w3.org/2000/svg"
   xmlns="http://www.w3.org/2000/svg"
   xmlns:sodipodi="http://sodipodi.sourceforge.net/DTD/sodipodi-0.dtd"
   xmlns:inkscape="http://www.inkscape.org/namespaces/inkscape"
   width="130.71428"
   height="130.71428"
   id="svg4067"
   version="1.1"
   inkscape:version="0.48.4 r9939"
   sodipodi:docname="connect.svg">
  <defs
     id="defs4069" />
  <sodipodi:namedview
     id="base"
     pagecolor="#ffffff"
     bordercolor="#666666"
     borderopacity="1.0"
     inkscape:pageopacity="0.0"
     inkscape:pageshadow="2"
     inkscape:zoom="0.98994949"
     inkscape:cx="25.946295"
     inkscape:cy="-37.430348"
     inkscape:document-units="px"
     inkscape:current-layer="layer1"
     showgrid="false"
     fit-margin-top="0"
     fit-margin-left="0"
     fit-margin-right="0"
     fit-margin-bottom="0"
     inkscape:window-width="1366"
     inkscape:window-height="746"
     inkscape:window-x="1592"
     inkscape:window-y="64"
     inkscape:window-maximized="1"
     showguides="true"
     inkscape:guide-bbox="true" />
  <metadata
     id="metadata4072">
    <rdf:RDF>
      <cc:Work
         rdf:about="">
        <dc:format>image/svg+xml</dc:format>
        <dc:type
           rdf:resource="http://purl.org/dc/dcmitype/StillImage" />
        <dc:title />
      </cc:Work>
    </rdf:RDF>
  </metadata>
  <g
     inkscape:label="Layer 1"
     inkscape:groupmode="layer"
     id="layer1"
     transform="translate(-310.96555,-162.82521)">
    <g
       id="g3814"
       transform="translate(3.5355339,-7.0710678)">
      <path
         inkscape:export-ydpi="126.04"
         inkscape:export-xdpi="126.04"
         inkscape:export-filename="C:\Users\nabil.m.enayet\Dropbox\dc25\Brand\match.png"
         transform="matrix(7.9751648,5.0325117,-5.0325117,7.9751648,3128.3409,-10875.839)"
         d="m 377.75,1150.3622 c 0,0.5523 -0.44772,1 -1,1 -0.55228,0 -1,-0.4477 -1,-1 0,-0.5523 0.44772,-1 1,-1 0.55228,0 1,0.4477 1,1 z"
         sodipodi:ry="1"
         sodipodi:rx="1"
         sodipodi:cy="1150.3622"
         sodipodi:cx="376.75"
         id="path4001"
         style="color:#000000;fill:#050505;fill-opacity:1;stroke:none;stroke-width:0.5;marker:none;visibility:visible;display:inline;overflow:visible;enable-background:accumulate"
         sodipodi:type="arc" />
      <path
         sodipodi:type="arc"
         style="color:#000000;fill:#050505;fill-opacity:1;stroke:none;stroke-width:0.5;marker:none;visibility:visible;display:inline;overflow:visible;enable-background:accumulate"
         id="path3022"
         sodipodi:cx="376.75"
         sodipodi:cy="1150.3622"
         sodipodi:rx="1"
         sodipodi:ry="1"
         d="m 377.75,1150.3622 c 0,0.5523 -0.44772,1 -1,1 -0.55228,0 -1,-0.4477 -1,-1 0,-0.5523 0.44772,-1 1,-1 0.55228,0 1,0.4477 1,1 z"
         transform="matrix(3.7472077,2.3645739,-2.3645739,3.7472077,1712.4861,-4994.5116)"
         inkscape:export-filename="C:\Users\nabil.m.enayet\Dropbox\dc25\Brand\match.png"
         inkscape:export-xdpi="126.04"
         inkscape:export-ydpi="126.04" />
      <path
         inkscape:export-ydpi="126.04"
         inkscape:export-xdpi="126.04"
         inkscape:export-filename="C:\Users\nabil.m.enayet\Dropbox\dc25\Brand\match.png"
         transform="matrix(16.733076,10.558954,-10.558954,16.733076,6246.5655,-22974.839)"
         d="m 377.75,1150.3622 c 0,0.5523 -0.44772,1 -1,1 -0.55228,0 -1,-0.4477 -1,-1 0,-0.5523 0.44772,-1 1,-1 0.55228,0 1,0.4477 1,1 z"
         sodipodi:ry="1"
         sodipodi:rx="1"
         sodipodi:cy="1150.3622"
         sodipodi:cx="376.75"
         id="path3024"
         style="color:#000000;fill:#050505;fill-opacity:1;stroke:none;stroke-width:0.5;marker:none;visibility:visible;display:inline;overflow:visible;enable-background:accumulate"
         sodipodi:type="arc" />
      <path
         sodipodi:type="arc"
         style="color:#000000;fill:#050505;fill-opacity:1;stroke:none;stroke-width:0.5;marker:none;visibility:visible;display:inline;overflow:visible;enable-background:accumulate"
         id="path3026"
         sodipodi:cx="376.75"
         sodipodi:cy="1150.3622"
         sodipodi:rx="1"
         sodipodi:ry="1"
         d="m 377.75,1150.3622 c 0,0.5523 -0.44772,1 -1,1 -0.55228,0 -1,-0.4477 -1,-1 0,-0.5523 0.44772,-1 1,-1 0.55228,0 1,0.4477 1,1 z"
         transform="matrix(10.089143,6.3664804,-6.3664804,10.089143,3858.2325,-13735.253)"
         inkscape:export-filename="C:\Users\nabil.m.enayet\Dropbox\dc25\Brand\match.png"
         inkscape:export-xdpi="126.04"
         inkscape:export-ydpi="126.04" />
      <path
         inkscape:export-ydpi="126.04"
         inkscape:export-xdpi="126.04"
         inkscape:export-filename="C:\Users\nabil.m.enayet\Dropbox\dc25\Brand\match.png"
         transform="matrix(6.1631832,3.8891098,-3.8891098,6.1631832,2523.8929,-8332.413)"
         d="m 377.75,1150.3622 c 0,0.5523 -0.44772,1 -1,1 -0.55228,0 -1,-0.4477 -1,-1 0,-0.5523 0.44772,-1 1,-1 0.55228,0 1,0.4477 1,1 z"
         sodipodi:ry="1"
         sodipodi:rx="1"
         sodipodi:cy="1150.3622"
         sodipodi:cx="376.75"
         id="path3028"
         style="color:#000000;fill:#050505;fill-opacity:1;stroke:none;stroke-width:0.5;marker:none;visibility:visible;display:inline;overflow:visible;enable-background:accumulate"
         sodipodi:type="arc" />
      <path
         sodipodi:nodetypes="cccc"
         transform="translate(310.96555,162.82521)"
         inkscape:connector-curvature="0"
         id="path3030"
         d="M 22.857143,104.64285 32.500001,32.857136 26.785715,96.428567 z"
         style="fill:#000000;fill-opacity:1;stroke:#000000;stroke-width:1px;stroke-linecap:butt;stroke-linejoin:miter;stroke-opacity:1" />
      <path
         style="fill:#000000;fill-opacity:1;stroke:#000000;stroke-width:1px;stroke-linecap:butt;stroke-linejoin:miter;stroke-opacity:1"
         d="M 25.357143,106.42856 60.357144,60.357136 26.785715,96.428567 z"
         id="path3800"
         inkscape:connector-curvature="0"
         transform="translate(310.96555,162.82521)"
         sodipodi:nodetypes="cccc" />
      <path
         sodipodi:nodetypes="cccc"
         inkscape:connector-curvature="0"
         id="path3802"
         d="m 371.32269,224.61092 32.85714,-17.85715 -29.99999,15.35715 z"
         style="fill:#000000;fill-opacity:1;stroke:#000000;stroke-width:1px;stroke-linecap:butt;stroke-linejoin:miter;stroke-opacity:1" />
      <path
         style="fill:#000000;fill-opacity:1;stroke:#000000;stroke-width:1px;stroke-linecap:butt;stroke-linejoin:miter;stroke-opacity:1"
         d="m 344.81517,194.15473 27.65791,27.69809 -24.22839,-26.06968 z"
         id="path3804"
         inkscape:connector-curvature="0"
         sodipodi:nodetypes="cccc" />
      <path
         sodipodi:nodetypes="cccc"
         inkscape:connector-curvature="0"
         id="path3806"
         d="m 371.60088,223.44044 33.72934,28.41238 -30.29982,-26.78397 z"
         style="fill:#000000;fill-opacity:1;stroke:#000000;stroke-width:1px;stroke-linecap:butt;stroke-linejoin:miter;stroke-opacity:1" />
      <path
         style="fill:#000000;fill-opacity:1;stroke:#000000;stroke-width:1px;stroke-linecap:butt;stroke-linejoin:miter;stroke-opacity:1"
         d="m 345.52945,192.01187 58.72934,15.19809 -55.29982,-13.56968 z"
         id="path3808"
         inkscape:connector-curvature="0"
         sodipodi:nodetypes="cccc" />
      <path
         sodipodi:nodetypes="cccc"
         inkscape:connector-curvature="0"
         id="path3810"
         d="m 333.74374,269.15473 71.94363,-13.73048 -68.51411,15.35889 z"
         style="fill:#000000;fill-opacity:1;stroke:#000000;stroke-width:1px;stroke-linecap:butt;stroke-linejoin:miter;stroke-opacity:1" />
      <path
         style="fill:#000000;fill-opacity:1;stroke:#000000;stroke-width:1px;stroke-linecap:butt;stroke-linejoin:miter;stroke-opacity:1"
         d="m 408.74374,251.29759 -4.1278,-44.80191 7.55732,46.43032 z"
         id="path3812"
         inkscape:connector-curvature="0"
         sodipodi:nodetypes="cccc" />
    </g>
  </g>
</svg>
