<?xml version="1.0" encoding="UTF-8" standalone="no"?>
<!-- Created with Inkscape (http://www.inkscape.org/) -->

<svg
   xmlns:dc="http://purl.org/dc/elements/1.1/"
   xmlns:cc="http://creativecommons.org/ns#"
   xmlns:rdf="http://www.w3.org/1999/02/22-rdf-syntax-ns#"
   xmlns:svg="http://www.w3.org/2000/svg"
   xmlns="http://www.w3.org/2000/svg"
   xmlns:sodipodi="http://sodipodi.sourceforge.net/DTD/sodipodi-0.dtd"
   xmlns:inkscape="http://www.inkscape.org/namespaces/inkscape"
   width="130.71428"
   height="130.71428"
   id="svg4067"
   version="1.1"
   inkscape:version="0.48.4 r9939"
   sodipodi:docname="free.svg">
  <defs
     id="defs4069" />
  <sodipodi:namedview
     id="base"
     pagecolor="#ffffff"
     bordercolor="#666666"
     borderopacity="1.0"
     inkscape:pageopacity="0.0"
     inkscape:pageshadow="2"
     inkscape:zoom="2.8284271"
     inkscape:cx="33.203317"
     inkscape:cy="11.292569"
     inkscape:document-units="px"
     inkscape:current-layer="layer1"
     showgrid="false"
     fit-margin-top="0"
     fit-margin-left="0"
     fit-margin-right="0"
     fit-margin-bottom="0"
     inkscape:window-width="1538"
     inkscape:window-height="878"
     inkscape:window-x="-8"
     inkscape:window-y="-8"
     inkscape:window-maximized="1"
     showguides="true"
     inkscape:guide-bbox="true" />
  <metadata
     id="metadata4072">
    <rdf:RDF>
      <cc:Work
         rdf:about="">
        <dc:format>image/svg+xml</dc:format>
        <dc:type
           rdf:resource="http://purl.org/dc/dcmitype/StillImage" />
        <dc:title />
      </cc:Work>
    </rdf:RDF>
  </metadata>
  <g
     inkscape:label="Layer 1"
     inkscape:groupmode="layer"
     id="layer1"
     transform="translate(-310.96555,-162.82521)">
    <path
       style="color:#000000;fill:#000000;fill-opacity:1;fill-rule:nonzero;stroke:none;stroke-width:1.5;marker:none;visibility:visible;display:inline;overflow:visible;enable-background:accumulate"
       d="m 347.46934,209.9642 c -1.79352,0 -3.24302,1.4495 -3.24302,3.24302 l 0,2.16997 64.19274,0 0,-2.16997 c 0,-1.79352 -1.42566,-3.24302 -3.21918,-3.24302 l -57.73054,0 z m -3.24302,11.87518 0,21.3181 c 0,1.79352 1.4495,3.24302 3.24302,3.24302 l 57.73054,0 c 1.79352,0 3.21918,-1.4495 3.21918,-3.24302 l 0,-21.3181 -64.19274,0 z"
       id="rect3812"
       inkscape:connector-curvature="0" />
    <path
       sodipodi:nodetypes="cc"
       inkscape:connector-curvature="0"
       id="path3839"
       d="m 346.24793,196.06257 c 1.25,1.25 62.37132,62.37132 62.37132,62.37132"
       style="fill:none;stroke:#ffffff;stroke-width:6.5;stroke-linecap:butt;stroke-linejoin:miter;stroke-miterlimit:4;stroke-opacity:1;stroke-dasharray:none" />
    <path
       style="fill:none;stroke:#000000;stroke-width:4;stroke-linecap:butt;stroke-linejoin:miter;stroke-miterlimit:4;stroke-opacity:1;stroke-dasharray:none"
       d="m 346.24793,196.06257 c 1.25,1.25 62.37132,62.37132 62.37132,62.37132"
       id="path3821"
       inkscape:connector-curvature="0"
       sodipodi:nodetypes="cc" />
    <path
       style="fill:none;stroke:#ffffff;stroke-width:6.5;stroke-linecap:butt;stroke-linejoin:miter;stroke-miterlimit:4;stroke-opacity:1;stroke-dasharray:none"
       d="m 408.61925,196.06257 c -0.56487,0.56487 -15.07482,15.10607 -28.92693,28.95818 m -4.57107,4.32107 c -14.4975,14.4975 -28.87332,29.09207 -28.87332,29.09207"
       id="path3823"
       inkscape:connector-curvature="0"
       sodipodi:nodetypes="cccc" />
    <path
       sodipodi:nodetypes="cc"
       inkscape:connector-curvature="0"
       id="path12"
       d="m 408.61925,196.06257 c -1.25,1.25 -62.37132,62.37132 -62.37132,62.37132"
       style="fill:none;stroke:#000000;stroke-width:4;stroke-linecap:butt;stroke-linejoin:miter;stroke-miterlimit:4;stroke-opacity:1;stroke-dasharray:none" />
    <path
       sodipodi:type="arc"
       style="color:#000000;fill:none;stroke:#000000;stroke-width:4;stroke-miterlimit:4;stroke-opacity:1;stroke-dasharray:none;marker:none;visibility:visible;display:inline;overflow:visible;enable-background:accumulate"
       id="path3819"
       sodipodi:cx="63.993164"
       sodipodi:cy="70.256653"
       sodipodi:rx="44.547726"
       sodipodi:ry="44.547726"
       d="m 108.54089,70.256653 c 0,24.603029 -19.944696,44.547727 -44.547726,44.547727 -24.603029,0 -44.547726,-19.944698 -44.547726,-44.547727 0,-24.60303 19.944697,-44.547726 44.547726,-44.547726 24.60303,0 44.547726,19.944696 44.547726,44.547726 z"
       transform="translate(312.32953,157.9257)" />
  </g>
</svg>
