<?xml version="1.0" encoding="UTF-8" standalone="no"?>
<!-- Created with Inkscape (http://www.inkscape.org/) -->

<svg
   xmlns:dc="http://purl.org/dc/elements/1.1/"
   xmlns:cc="http://creativecommons.org/ns#"
   xmlns:rdf="http://www.w3.org/1999/02/22-rdf-syntax-ns#"
   xmlns:svg="http://www.w3.org/2000/svg"
   xmlns="http://www.w3.org/2000/svg"
   xmlns:sodipodi="http://sodipodi.sourceforge.net/DTD/sodipodi-0.dtd"
   xmlns:inkscape="http://www.inkscape.org/namespaces/inkscape"
   width="130.71428"
   height="130.71428"
   id="svg4067"
   version="1.1"
   inkscape:version="0.48.4 r9939"
   sodipodi:docname="meet.svg">
  <defs
     id="defs4069" />
  <sodipodi:namedview
     id="base"
     pagecolor="#ffffff"
     bordercolor="#666666"
     borderopacity="1.0"
     inkscape:pageopacity="0.0"
     inkscape:pageshadow="2"
     inkscape:zoom="1.4142136"
     inkscape:cx="-28.419906"
     inkscape:cy="53.836123"
     inkscape:document-units="px"
     inkscape:current-layer="layer1"
     showgrid="false"
     fit-margin-top="0"
     fit-margin-left="0"
     fit-margin-right="0"
     fit-margin-bottom="0"
     inkscape:window-width="1366"
     inkscape:window-height="746"
     inkscape:window-x="1592"
     inkscape:window-y="64"
     inkscape:window-maximized="1"
     showguides="true"
     inkscape:guide-bbox="true" />
  <metadata
     id="metadata4072">
    <rdf:RDF>
      <cc:Work
         rdf:about="">
        <dc:format>image/svg+xml</dc:format>
        <dc:type
           rdf:resource="http://purl.org/dc/dcmitype/StillImage" />
        <dc:title />
      </cc:Work>
    </rdf:RDF>
  </metadata>
  <g
     inkscape:label="Layer 1"
     inkscape:groupmode="layer"
     id="layer1"
     transform="translate(-310.96555,-162.82521)">
    <path
       style="fill:#000000"
       d="m 329.63103,275.55889 c -0.9182,-1.74406 -1.26703,-3.09757 -1.14964,-4.46087 0.18031,-2.09424 0.94877,-3.08342 4.9098,-6.32014 1.94998,-1.5934 4.39051,-3.62323 5.42343,-4.51074 1.03292,-0.8875 3.44608,-2.89349 5.36257,-4.45777 21.93312,-17.90193 41.71436,-35.62576 43.27823,-38.77698 0.81499,-1.6422 1.46288,-5.48659 1.51132,-8.96836 0.0663,-4.76047 0.30886,-6.53731 1.29834,-9.5098 2.02812,-6.09276 6.27391,-10.35774 13.91644,-13.97937 9.00064,-4.26522 16.63033,-4.85994 19.95292,-1.55531 3.09098,3.07426 2.78883,10.09586 -0.7917,18.3987 -3.82369,8.86674 -8.76321,13.86398 -15.62129,15.8038 -2.61522,0.73972 -4.78327,0.93528 -9.36207,0.84447 -2.99391,-0.0594 -4.48673,0.10084 -6.11171,0.65596 l -2.15017,0.73453 -6.10415,6.20451 c -8.89185,9.03802 -15.364,16.37794 -28.59149,32.42509 -2.82013,3.42126 -6.65308,8.03378 -8.51772,10.25005 -1.86463,2.21628 -4.28438,5.15461 -5.37724,6.52966 -2.30867,2.90479 -3.43224,3.66556 -5.62384,3.80791 -1.30514,0.0848 -3.53731,-0.60594 -4.98717,-1.54322 -0.3645,-0.23562 -0.93369,-0.94307 -1.26486,-1.57212 z"
       id="path3840"
       inkscape:connector-curvature="0"
       sodipodi:nodetypes="cssssssssssssscssssssc" />
    <g
       id="g3793"
       transform="matrix(0.70710678,-0.70710678,0.70710678,0.70710678,25.441244,192.98984)">
      <path
         sodipodi:nodetypes="cssssssssssscsssscssssssscc"
         inkscape:connector-curvature="0"
         id="path3006"
         d="m 216.3884,339.29844 c -4.11647,-1.88508 -4.2154,-2.9828 -2.18998,-24.29853 2.61917,-27.56452 3.3568,-46.14709 2.93158,-54.78039 -0.22765,-4.62191 -0.42211,-5.18718 -2.43312,-7.07245 -6.0162,-5.64007 -5.46557,-3.13845 -5.45308,-24.77432 0.009,-17.13275 0.38727,-21.67832 1.71636,-20.6743 0.19228,0.14525 0.58717,7.14303 0.87754,15.5506 0.30139,8.72696 0.8286,15.42688 1.22859,15.61363 1.55289,0.725 1.97305,-1.63658 1.98372,-11.14954 0.0119,-10.94513 0.67621,-20.03548 1.46339,-20.03548 0.27802,0 0.69951,6.84436 0.93665,15.20968 0.24671,8.70257 0.73587,15.43986 1.14337,15.74768 1.92126,1.45137 2.29638,-0.48242 2.30144,-11.86447 0.005,-11.95403 0.54378,-19.09289 1.44014,-19.09289 0.27832,0 0.72099,6.85908 0.98371,15.2424 0.44292,14.13352 0.9035,17.09695 2.47295,15.91135 0.30518,-0.23054 0.76955,-7.22706 1.03193,-15.54781 0.26237,-8.32076 0.67385,-15.27732 0.91439,-15.45902 0.24053,-0.18171 0.65282,-0.1676 0.91619,0.0314 0.26337,0.19895 0.6356,8.97986 0.82719,19.51313 0.38801,21.33236 0.49317,20.7755 -4.68364,24.80218 -1.36902,1.06486 -2.68445,2.52399 -2.92317,3.2425 -0.23872,0.71852 -0.80729,7.29892 -0.64238,14.62313 0.28447,12.63005 0.93803,22.25432 2.82905,41.66081 2.17726,22.34399 2.23111,23.44324 1.22376,24.98066 -2.0375,3.10961 -5.56142,4.14742 -8.89664,2.6201 z"
         style="fill:#000000" />
    </g>
  </g>
</svg>
