<?xml version="1.0" encoding="UTF-8" standalone="no"?>
<!-- Created with Inkscape (http://www.inkscape.org/) -->

<svg
   xmlns:dc="http://purl.org/dc/elements/1.1/"
   xmlns:cc="http://creativecommons.org/ns#"
   xmlns:rdf="http://www.w3.org/1999/02/22-rdf-syntax-ns#"
   xmlns:svg="http://www.w3.org/2000/svg"
   xmlns="http://www.w3.org/2000/svg"
   xmlns:sodipodi="http://sodipodi.sourceforge.net/DTD/sodipodi-0.dtd"
   xmlns:inkscape="http://www.inkscape.org/namespaces/inkscape"
   width="130.71428"
   height="130.71428"
   id="svg4067"
   version="1.1"
   inkscape:version="0.48.4 r9939"
   sodipodi:docname="relax.svg">
  <defs
     id="defs4069" />
  <sodipodi:namedview
     id="base"
     pagecolor="#ffffff"
     bordercolor="#666666"
     borderopacity="1.0"
     inkscape:pageopacity="0.0"
     inkscape:pageshadow="2"
     inkscape:zoom="2"
     inkscape:cx="53.670522"
     inkscape:cy="66.848543"
     inkscape:document-units="px"
     inkscape:current-layer="layer1"
     showgrid="false"
     fit-margin-top="0"
     fit-margin-left="0"
     fit-margin-right="0"
     fit-margin-bottom="0"
     inkscape:window-width="1538"
     inkscape:window-height="878"
     inkscape:window-x="-8"
     inkscape:window-y="-8"
     inkscape:window-maximized="1"
     showguides="true"
     inkscape:guide-bbox="true" />
  <metadata
     id="metadata4072">
    <rdf:RDF>
      <cc:Work
         rdf:about="">
        <dc:format>image/svg+xml</dc:format>
        <dc:type
           rdf:resource="http://purl.org/dc/dcmitype/StillImage" />
        <dc:title />
      </cc:Work>
    </rdf:RDF>
  </metadata>
  <g
     inkscape:label="Layer 1"
     inkscape:groupmode="layer"
     id="layer1"
     transform="translate(-310.96555,-162.82521)">
    <g
       id="g3003"
       transform="translate(-1.2795488,-3.0979412)">
      <path
         inkscape:connector-curvature="0"
         id="path2994"
         d="m 344.05516,250.22477 c -5.67847,-0.88211 -10.63989,-3.50477 -12.43718,-6.57442 -1.39932,-2.38994 -3.67663,-8.49512 -5.13101,-13.75562 -0.98868,-3.57604 -1.16146,-3.92065 -3.05492,-6.09333 -1.76794,-2.02862 -2.01633,-2.77851 -1.92216,-5.8032 l 0.0703,-2.25884 5.50265,-1.16496 c 13.41756,-2.84059 16.55751,-3.06541 26.29039,-1.88229 4.94809,0.60148 7.33897,1.01007 12.22782,2.08971 6.02219,1.3299 8.85849,1.63662 13.69573,1.481 4.40863,-0.14183 6.43767,-0.42864 15.65197,-2.21251 8.93342,-1.72949 10.74038,-1.95502 15.65196,-1.95361 5.16746,9.1e-4 10.70544,0.75626 15.77424,2.14985 1.68136,0.46228 3.77236,0.97154 4.64668,1.13169 2.7005,0.49466 2.69019,0.47947 2.69006,3.96556 l -1.2e-4,2.99024 -1.25796,1.08333 c -1.52575,1.31396 -2.26214,2.84677 -3.35684,6.98721 -0.42677,1.6141 -1.05748,3.98025 -1.4016,5.25808 -0.34414,1.27783 -1.12564,3.36884 -1.73668,4.64668 -1.99024,4.16207 -5.9532,7.45529 -10.83338,9.00254 -2.75623,0.87386 -4.42828,1.10696 -7.82598,1.09105 -4.82579,-0.0226 -8.79523,-1.00232 -12.60867,-3.11194 -2.27209,-1.25695 -5.71122,-4.74418 -7.27053,-7.37221 -1.39849,-2.35701 -3.08637,-6.43822 -3.98539,-9.63648 -1.17135,-4.16705 -1.73398,-4.74076 -4.87144,-4.9674 -3.66045,-0.26444 -4.28686,0.38256 -5.87267,6.06568 -1.48476,5.32103 -4.45828,10.36523 -8.19245,13.8975 -3.09115,2.92405 -5.93596,4.29659 -10.2547,4.94762 -2.80469,0.4228 -7.46321,0.42236 -10.18815,-6.9e-4 z"
         style="fill:#000000" />
      <path
         sodipodi:nodetypes="ssssssscs"
         inkscape:connector-curvature="0"
         id="rect2996"
         d="m 338.31704,218.22762 c -1.66078,0.16078 -3.63873,1.08999 -4.90866,2.50245 -2.08232,2.31604 -2.58906,5.97706 -1.05873,7.50738 0.74374,0.74375 1.44669,0.65346 2.24579,-0.25667 0.36935,-0.42066 1.20221,-1.50695 1.82872,-2.43828 0.6265,-0.93134 1.95208,-2.55159 2.95161,-3.59328 0.99954,-1.04168 1.82873,-2.07836 1.82873,-2.30996 0,-0.23161 -0.21373,-0.62108 -0.44917,-0.83415 -0.55765,-0.50467 -1.44182,-0.67398 -2.43829,-0.57749 z"
         style="color:#000000;fill:#ffffff;fill-opacity:1;fill-rule:nonzero;stroke:none;stroke-width:9.2125988;marker:none;visibility:visible;display:inline;overflow:visible;enable-background:accumulate" />
    </g>
  </g>
</svg>
